<svg xmlns="http://www.w3.org/2000/svg" viewBox="0 0 89.4 80.701">
    <style>
        @media (prefers-color-scheme: dark) {
            g {
                fill: #F1F5F9;
            }
        }
        @media (prefers-color-scheme: light) {
            g {
                fill: #0F172A;
            }
        }
    </style>
    <g fill-rule="evenodd">
        <path d="M 15.95 80.351 A 16.096 16.096 0 0 0 16.406 80.454 Q 17.576 80.701 18.5 80.701 A 11.239 11.239 0 0 0 21.759 80.202 Q 25.153 79.177 28.75 76.051 Q 34.1 71.401 39.2 64.201 Q 38.3 67.001 37.75 69.351 Q 37.2 71.701 37.2 73.201 Q 37.2 75.801 38.55 77.451 Q 39.9 79.101 41.9 79.901 A 12.171 12.171 0 0 0 43.079 80.305 A 9.883 9.883 0 0 0 45.8 80.701 A 10.933 10.933 0 0 0 48.316 80.396 Q 49.922 80.017 51.625 79.166 A 23.614 23.614 0 0 0 54.7 77.301 A 39.268 39.268 0 0 0 55.545 76.685 Q 59.931 73.4 64.4 68.201 A 97.997 97.997 0 0 0 67.573 64.309 A 115.833 115.833 0 0 0 73.8 55.401 Q 78.3 48.301 81.8 40.751 A 118.524 118.524 0 0 0 84.221 35.166 A 97.176 97.176 0 0 0 87.35 26.201 A 64.92 64.92 0 0 0 87.886 24.262 Q 88.629 21.398 89.008 18.8 A 35.44 35.44 0 0 0 89.4 13.701 Q 89.4 10.049 88.579 7.629 A 8.432 8.432 0 0 0 87.4 5.301 A 10.468 10.468 0 0 0 86.364 4.09 Q 84.86 2.601 83.3 2.601 A 3.476 3.476 0 0 0 82.421 2.719 Q 81.924 2.849 81.394 3.121 A 7.799 7.799 0 0 0 80.45 3.701 Q 78.9 4.801 77.5 7.201 A 6.613 6.613 0 0 1 79.766 8.325 A 7.438 7.438 0 0 1 81.5 10.251 A 6.31 6.31 0 0 1 81.813 10.803 Q 82.627 12.415 82.883 15.015 A 26.523 26.523 0 0 1 83 17.601 A 38.971 38.971 0 0 1 82.521 23.539 A 53.087 53.087 0 0 1 81.2 29.601 Q 79.4 36.101 76.4 42.851 Q 73.4 49.601 69.65 55.801 A 119.052 119.052 0 0 1 66.809 60.275 A 97.255 97.255 0 0 1 61.95 66.951 Q 59.697 69.774 57.526 71.914 A 35.39 35.39 0 0 1 54.3 74.751 Q 50.6 77.601 47.8 77.601 Q 47.083 77.601 46.572 77.418 A 1.748 1.748 0 0 1 45.5 76.451 A 5.015 5.015 0 0 1 45.237 75.662 Q 45 74.709 45 73.401 Q 45 69.701 46.05 65.601 Q 47.1 61.501 48.65 57.401 Q 50.2 53.301 51.7 49.701 Q 52.656 47.523 53.471 45.57 A 174.764 174.764 0 0 0 54.8 42.301 A 34.686 34.686 0 0 0 55.34 40.842 Q 55.836 39.395 56.008 38.371 A 5.915 5.915 0 0 0 56.1 37.401 A 3.68 3.68 0 0 0 55.957 36.405 Q 55.798 35.837 55.462 35.244 A 8.148 8.148 0 0 0 54.75 34.201 A 3.911 3.911 0 0 0 53.296 33.084 Q 52.623 32.773 51.759 32.628 A 10.039 10.039 0 0 0 50.1 32.501 A 24.379 24.379 0 0 1 49.778 34.453 Q 49.507 35.773 49.074 37.262 A 53.719 53.719 0 0 1 48.05 40.401 A 89.613 89.613 0 0 1 46.577 44.221 A 111.719 111.719 0 0 1 43.95 50.101 Q 41.5 55.201 38.55 60.051 A 99.939 99.939 0 0 1 36.687 62.999 A 84.842 84.842 0 0 1 32.45 68.901 Q 30.678 71.151 28.938 72.879 A 28.67 28.67 0 0 1 26.25 75.251 Q 23.2 77.601 20.7 77.601 A 5.205 5.205 0 0 1 19.975 77.554 Q 18.77 77.384 18.3 76.601 Q 17.878 75.898 17.753 74.75 A 9.7 9.7 0 0 1 17.7 73.701 Q 17.7 70.801 18.6 67.001 Q 19.5 63.201 20.95 58.651 Q 22.4 54.101 24 49.101 Q 26.5 41.401 28.55 33.251 A 72.695 72.695 0 0 0 29.799 27.258 A 58.569 58.569 0 0 0 30.6 17.801 Q 30.6 13.308 29.662 9.815 A 18.071 18.071 0 0 0 27.55 4.851 A 9.791 9.791 0 0 0 22.19 0.574 A 12.507 12.507 0 0 0 18.3 0.001 Q 14.6 0.001 11.3 1.601 Q 8 3.201 5.45 5.851 A 23.959 23.959 0 0 0 4.83 6.52 A 20.977 20.977 0 0 0 1.45 11.601 A 16.923 16.923 0 0 0 0.921 12.86 A 14.061 14.061 0 0 0 0 17.801 A 10.132 10.132 0 0 0 0.015 18.36 A 8.097 8.097 0 0 0 1.6 22.851 A 4.665 4.665 0 0 0 3.224 24.214 Q 4.741 25.001 7.1 25.001 Q 6.509 23.623 6.306 21.728 A 20.009 20.009 0 0 1 6.2 19.601 A 25.382 25.382 0 0 1 6.313 17.253 A 32.589 32.589 0 0 1 6.75 14.201 Q 7.3 11.301 8.55 8.701 A 14.778 14.778 0 0 1 9.308 7.313 A 11.994 11.994 0 0 1 11.75 4.451 A 6.752 6.752 0 0 1 14.006 3.182 A 7.883 7.883 0 0 1 16.5 2.801 A 8.899 8.899 0 0 1 16.749 2.804 Q 19.552 2.883 20.75 4.751 Q 21.551 6 21.941 7.762 A 15.472 15.472 0 0 1 22.25 9.901 A 77.958 77.958 0 0 1 22.407 12.477 A 96.577 96.577 0 0 1 22.5 16.801 A 55.993 55.993 0 0 1 22.397 20.162 A 65.551 65.551 0 0 1 21.45 27.901 Q 20.4 33.701 18.8 39.501 A 353.08 353.08 0 0 1 18.398 40.945 A 322.443 322.443 0 0 1 15.5 50.701 Q 13.3 57.701 11.6 63.451 A 67.932 67.932 0 0 0 11.287 64.542 Q 10.38 67.81 10.066 70.294 A 19.317 19.317 0 0 0 9.9 72.701 A 12.438 12.438 0 0 0 9.934 73.632 Q 9.998 74.487 10.185 75.213 A 6.054 6.054 0 0 0 10.8 76.751 A 7.839 7.839 0 0 0 11.093 77.218 A 6.48 6.48 0 0 0 13.1 79.151 Q 14.5 80.001 15.95 80.351 Z" />
    </g>
</svg>
